<?xml version="1.0" encoding="UTF-8" standalone="no"?>
<!-- Generator: Gravit.io -->

<svg
   xmlns:dc="http://purl.org/dc/elements/1.1/"
   xmlns:cc="http://creativecommons.org/ns#"
   xmlns:rdf="http://www.w3.org/1999/02/22-rdf-syntax-ns#"
   xmlns:svg="http://www.w3.org/2000/svg"
   xmlns="http://www.w3.org/2000/svg"
   xmlns:sodipodi="http://sodipodi.sourceforge.net/DTD/sodipodi-0.dtd"
   xmlns:inkscape="http://www.inkscape.org/namespaces/inkscape"
   style="isolation:isolate"
   viewBox="0 0 275 150"
   width="275"
   height="150"
   version="1.1"
   id="svg41"
   sodipodi:docname="faketoshi_logo.svg"
   inkscape:version="0.92.3 (unknown)">
  <metadata
     id="metadata45">
    <rdf:RDF>
      <cc:Work
         rdf:about="">
        <dc:format>image/svg+xml</dc:format>
        <dc:type
           rdf:resource="http://purl.org/dc/dcmitype/StillImage" />
        <dc:title></dc:title>
      </cc:Work>
    </rdf:RDF>
  </metadata>
  <sodipodi:namedview
     pagecolor="#ffffff"
     bordercolor="#666666"
     borderopacity="1"
     objecttolerance="10"
     gridtolerance="10"
     guidetolerance="10"
     inkscape:pageopacity="0"
     inkscape:pageshadow="2"
     inkscape:window-width="1845"
     inkscape:window-height="1128"
     id="namedview43"
     showgrid="false"
     inkscape:zoom="0.79286936"
     inkscape:cx="307.09731"
     inkscape:cy="420.94501"
     inkscape:window-x="67"
     inkscape:window-y="35"
     inkscape:window-maximized="1"
     inkscape:current-layer="svg41" />
  <defs
     id="defs5">
    <clipPath
       id="_clipPath_k0nOT9KuI1z5krlCacoRvEudV5C7PP9e">
      <rect
         width="595.276"
         height="841.89001"
         id="rect2"
         x="0"
         y="0" />
    </clipPath>
  </defs>
  <g
     id="g78"
     transform="translate(-123.58063,-270.91961)">
    <path
       d="m 141.461,376.657 q 29.452,-46.098 5.122,-74.269 36.109,14.92 66.109,-24.58 -17.5,34.5 -52.769,35.5 11.5,31.5 -18.462,63.349 z"
       id="path7"
       inkscape:connector-curvature="0"
       style="fill:#FFFFFF" />
    <path
       d="m 137.692,340.808 q 41.5,-6.5 52.5,-17 -8,10.5 -16,13.5 -8,3 -36.5,3.5 z"
       id="path9"
       inkscape:connector-curvature="0"
       style="fill:#FFFFFF" />
    <path
       d="m 175.692,351.621 q 11.452,-13 15.952,-4 4.5,9 1.548,17 -3,-12 -9,-8 c -6,4 -6.798,6.799 -6.5,11 q 0.283,3.99 13,2 -9.5,0 -9,-5 c 0.5,-5 7.5,-3.5 9,0 q 1.5,3.5 7.5,7.5 5.5,-24.5 -5,-30.5 -10.5,-6 -17.5,10 z"
       id="path11"
       inkscape:connector-curvature="0"
       style="fill:#FFFFFF" />
    <path
       d="m 202.192,311.808 8,4 -2.5,55.5 z"
       id="path13"
       inkscape:connector-curvature="0"
       style="fill:#FFFFFF" />
    <path
       d="m 224.692,324.308 2.5,7.5 q -14,18.673 -19.5,20.673 c -5.5,2 10,-11.173 12.5,-17.673 q 2.5,-6.5 4.5,-10.5 z"
       id="path15"
       inkscape:connector-curvature="0"
       style="fill:#FFFFFF" />
    <path
       d="m 234.692,398.808 q 5.5,-30 -7.5,-40 -13,-10 -19.5,-9.76 v 4.76 q 32,6 27,45 z"
       id="path17"
       inkscape:connector-curvature="0"
       style="fill:#FFFFFF" />
    <path
       d="m 240.192,354.975 16.5,-3 q 0.975,-7.834 -7.5,-10 c -8.235,-2.106 -23.305,10.082 -9,26 q 6.141,6.833 18.141,-5.834 -8.666,7.667 -13.641,2.834 c -7.358,-7.15 -7.047,-16.136 0,-18.5 q 3.975,-1.334 7,1.5 z"
       id="path19"
       inkscape:connector-curvature="0"
       style="fill:#FFFFFF" />
    <path
       d="m 257.692,282.308 11,5 q -0.836,26.914 -3.288,63.5 c -2.753,41.066 12.738,71.41 34.288,51 q -11.673,13.875 -18,12 c -9.221,-2.733 -19.878,-11.829 -19.5,-63 q 0.462,-62.385 -4.5,-68.5 z"
       id="path21"
       inkscape:connector-curvature="0"
       style="fill:#FFFFFF" />
    <path
       d="m 241.192,332.808 q 42.5,-8.5 45,-14 -4.442,9.5 -12.442,13 -8,3.5 -32.558,1 z"
       id="path23"
       inkscape:connector-curvature="0"
       style="fill:#FFFFFF" />
    <path
       d="m 324.904,348.37 q -7.187,-11.726 -13,-10.241 c -9.75,2.491 -10.212,14.491 -4.212,16.491 6,2 10.949,0.009 12.616,5.676 1.279,4.35 -2.122,8.396 -7.616,7.833 q -7.413,-0.759 -8,-7.833 -0.125,14.305 8,13.833 c 8.616,-0.5 15.116,-7.833 14.616,-13.833 -0.5,-6 -4.029,-9.051 -9.616,-9.167 -3.024,-0.062 -11.262,0.964 -8.413,-6 q 2.645,-6.464 15.625,3.241 z"
       id="path25"
       inkscape:connector-curvature="0"
       style="fill:#FFFFFF" />
    <path
       d="m 316.692,293.308 q 12.5,28 15.01,55.5 c 1.658,18.172 -0.01,27 -3,45.732 q 11.49,-26 9.49,-49.5 -2,-23.5 -21.5,-51.732 z"
       id="path27"
       inkscape:connector-curvature="0"
       style="fill:#FFFFFF" />
    <path
       d="m 344.176,342.942 c -8.061,0.5 -5.497,4.918 -9.109,6.106 l -0.884,-8.24 c 3.208,-2.977 8.721,-4.327 12.721,-2.952 4,1.375 7.609,4.149 10.5,11.875 3.763,10.054 -2.942,22.625 7.279,29.375 q -7.625,-3.875 -10,-18.132 c -2.701,-16.208 -6.506,-17.642 -10.507,-18.032 z"
       id="path29"
       inkscape:connector-curvature="0"
       style="fill:#FFFFFF" />
    <path
       d="m 364.938,334.698 q 3.865,3.625 7.748,3.625 -1.595,1.648 -2.051,5.619 c -0.635,5.522 -1.27,11.75 2.051,20.25 q 6.741,17.259 11.752,3.217 0.5,10 -7,10 c -7.5,0 -12,-18 -12.5,-28 -0.5,-10 -0.135,-10.836 0,-14.711 z"
       id="path31"
       inkscape:connector-curvature="0"
       style="fill:#FFFFFF" />
    <path
       d="m 366.135,328.323 q 3.775,-6.21 6.551,-1.631 5,8.25 3.502,7.131 -5.938,-1.007 -10.053,-5.5 z"
       id="path33"
       inkscape:connector-curvature="0"
       style="fill:#FFFFFF" />
    <path
       d="m 285.333,340.863 c -8,1 -12.5,7.167 -12,15.167 0.5,8 5.001,15.954 13.359,15.333 8.975,-0.666 13.116,-7 12.975,-17.5 -0.137,-10.197 -6.334,-14 -14.334,-13 z m 1.555,4.71 c -5.447,0.681 -8.51,4.879 -8.17,10.326 0.34,5.447 3.405,10.863 9.095,10.44 6.111,-0.454 8.93,-4.766 8.834,-11.915 -0.093,-6.943 -4.312,-9.532 -9.759,-8.851 z"
       id="path35"
       inkscape:connector-curvature="0"
       style="fill:#FFFFFF;fill-rule:evenodd" />
  </g>
</svg>
